<svg width="24" height="24" viewBox="0 0 24 24" fill="none" xmlns="http://www.w3.org/2000/svg">
<path d="M16.5 10.4985C17.296 10.4859 18.0866 10.6318 18.8256 10.9277C19.5647 11.2237 20.2375 11.6637 20.8049 12.2221C21.3723 12.7806 21.8229 13.4464 22.1304 14.1807C22.438 14.915 22.5964 15.7031 22.5964 16.4993C22.5964 17.2954 22.438 18.0835 22.1304 18.8178C21.8229 19.5521 21.3723 20.2179 20.8049 20.7764C20.2375 21.3348 19.5647 21.7748 18.8256 22.0708C18.0866 22.3667 17.296 22.5126 16.5 22.5C14.9319 22.4649 13.4399 21.8174 12.3433 20.696C11.2467 19.5746 10.6327 18.0685 10.6327 16.5C10.6327 14.9315 11.2467 13.4254 12.3433 12.304C13.4399 11.1826 14.9319 10.5351 16.5 10.5V10.4985ZM4.5 6.1275V15.75C4.49985 16.7021 4.86185 17.6186 5.51256 18.3136C6.16327 19.0086 7.05397 19.43 8.004 19.4925L8.25 19.5H9.6225C9.8565 20.0355 10.1505 20.5395 10.497 21H7.5C6.30653 21 5.16193 20.5259 4.31802 19.682C3.47411 18.8381 3 17.6935 3 16.5V8.25C2.99976 7.78451 3.14389 7.3304 3.41254 6.95026C3.68119 6.57012 4.06113 6.28266 4.5 6.1275ZM16.197 12.0675L16.083 12.1335L15.978 12.219L15.8925 12.324C15.8061 12.4492 15.7598 12.5978 15.7598 12.75C15.7598 12.9022 15.8061 13.0508 15.8925 13.176L15.9795 13.281L18.447 15.7485L12.75 15.75L12.615 15.762C12.4651 15.7894 12.3272 15.8617 12.2195 15.9695C12.1117 16.0772 12.0394 16.2151 12.012 16.365L12 16.5L12.012 16.635C12.0394 16.7849 12.1117 16.9228 12.2195 17.0305C12.3272 17.1383 12.4651 17.2106 12.615 17.238L12.75 17.25L18.45 17.2485L15.9795 19.719L15.8925 19.824C15.793 19.9685 15.7472 20.1433 15.7633 20.318C15.7793 20.4927 15.856 20.6562 15.9802 20.7802C16.1043 20.9042 16.268 20.9807 16.4427 20.9965C16.6174 21.0122 16.7922 20.9662 16.9365 20.8665L17.04 20.781L20.835 16.9815L20.8905 16.9065L20.9535 16.7865L20.9925 16.662L21.0075 16.566V16.434L20.9925 16.338L20.9535 16.2135L20.8905 16.0935L20.835 16.0185L17.04 12.219L16.935 12.1335C16.8282 12.0595 16.7041 12.0146 16.5747 12.003C16.4454 11.9914 16.3152 12.0137 16.197 12.0675ZM15.75 3C16.3467 3 16.919 3.23705 17.341 3.65901C17.7629 4.08097 18 4.65326 18 5.25V9.1485C16.7849 8.90019 15.5271 8.95704 14.3393 9.31396C13.1515 9.67089 12.0708 10.3168 11.1938 11.1938C10.3168 12.0708 9.67089 13.1515 9.31396 14.3393C8.95704 15.5271 8.90019 16.7849 9.1485 18H8.25C7.65326 18 7.08097 17.7629 6.65901 17.341C6.23705 16.919 6 16.3467 6 15.75V5.25C6 4.65326 6.23705 4.08097 6.65901 3.65901C7.08097 3.23705 7.65326 3 8.25 3H15.75Z" fill="#C6BFC3"/>
</svg>
