<svg width="49" height="48" viewBox="0 0 49 48" fill="none" xmlns="http://www.w3.org/2000/svg">
<g clip-path="url(#clip0_342_169)">
<path d="M24.5 0C11.2665 0 0.5 10.7665 0.5 24C0.5 37.2335 11.2665 48 24.5 48C37.7335 48 48.5 37.2335 48.5 24C48.5 10.7665 37.7335 0 24.5 0ZM31.8535 35.8108L10.7219 14.7762L13.3458 12.1788L34.4831 33.2204L31.8535 35.8108ZM24.5254 36.3715C20.4454 33.4869 16.8742 30.3808 15.8819 29.1715C13.5742 26.3596 12.4688 23.4715 12.5012 20.3446C12.505 19.9845 12.5378 19.6253 12.5992 19.2704L27.6235 34.2012C27.2277 34.5 25.7531 35.5223 24.5254 36.3715V36.3715ZM33.1181 29.1715L33.0823 29.2154L17.7304 13.9615C18.1185 13.8856 18.513 13.847 18.9085 13.8462C19.8661 13.8429 20.8137 14.0405 21.6902 14.4263C22.5667 14.812 23.3525 15.3774 23.9969 16.0858L24.5 16.6154L25.0031 16.0846C25.6476 15.3764 26.4334 14.8113 27.3099 14.4257C28.1864 14.0402 29.134 13.8427 30.0915 13.8462C33.5888 13.8462 36.4631 16.7619 36.4988 20.3458C36.5312 23.4715 35.4246 26.3596 33.1181 29.1715V29.1715Z" fill="#12171A"/>
</g>
<defs>
<clipPath id="clip0_342_169">
<rect width="48" height="48" fill="white" transform="translate(0.5)"/>
</clipPath>
</defs>
</svg>
