<svg width="160" height="64" viewBox="0 0 160 64" fill="none" xmlns="http://www.w3.org/2000/svg">
<path d="M33.6928 24.944C30.8692 25.7895 28.6277 28.4621 28.3382 31.2422C28.0913 33.5826 29.1566 35.7177 31.0515 36.6994C33.6611 38.0488 36.7278 36.371 36.9033 33.4421C36.9477 32.6805 36.8509 31.8367 36.5561 31.1414C35.9226 29.6355 35.22 28.1604 34.5116 26.6732C34.2383 26.0994 33.9641 25.5238 33.6928 24.944Z" fill="#70DCE3"/>
<path fill-rule="evenodd" clip-rule="evenodd" d="M0.491456 37.5558C3.55993 54.958 20.1536 66.577 37.5558 63.5086C54.958 60.4401 66.577 43.8464 63.5085 26.4442C60.4401 9.04203 43.8464 -2.57702 26.4442 0.491456C9.04202 3.55993 -2.57702 20.1536 0.491456 37.5558ZM38.8132 25.4666C39.3076 26.498 39.786 27.4961 40.2555 28.5008C41.2351 30.5925 41.6479 32.7679 41.1287 35.0557C39.7125 41.3222 32.0927 43.6729 27.1929 39.3583C23.7512 36.3297 22.9051 31.2548 25.1292 26.8991C26.3849 24.4247 28.4366 22.4448 30.9541 21.2781L31.7334 20.9068C31.6232 20.6245 31.5086 20.3458 31.3945 20.0684C31.1585 19.4947 30.9249 18.9271 30.7394 18.3466C29.8548 15.5591 30.7166 11.7133 33.1798 10.0769C35.6346 8.44845 38.2843 8.94731 40.441 10.7502C40.7405 11.0006 41.2135 11.5127 41.5708 11.9995C41.6357 12.073 41.6998 12.1481 41.7631 12.2248L43.3118 10.9691C43.6685 10.6798 44.1963 10.9704 44.1426 11.4266L43.4827 17.0334C43.4508 17.3038 43.213 17.5019 42.9414 17.4844L37.1464 17.1114C36.6814 17.0815 36.495 16.4964 36.8569 16.2029L38.4986 14.8718C38.2562 14.4477 37.9741 14.0414 37.6523 13.653C37.6233 13.6306 37.5957 13.609 37.5692 13.5883C37.2106 13.3079 37.0523 13.1841 36.4161 13.3041C35.2846 13.5199 34.6145 15.5971 34.9042 16.7058C35.1494 17.6459 35.5796 18.5448 36.0025 19.4283C36.0295 19.4847 36.0564 19.541 36.0833 19.5973C36.1605 19.7591 36.6044 19.8075 36.8732 19.8024C39.8438 19.7171 42.5847 20.4294 45.0443 22.1075C51.5432 26.5365 53.7468 35.1829 50.1139 42.3276C47.5764 47.3201 43.4994 50.5829 38.1338 52.065C28.283 54.7896 18.3811 49.8917 14.4023 40.4635C10.7692 31.8352 14.1156 21.3525 22.0841 16.4095C23.2676 15.6778 24.5521 15.9061 25.2491 16.9658C25.9588 18.0427 25.6237 19.3298 24.4424 20.1294C19.7115 23.332 17.26 27.7798 17.3789 33.5027C17.5359 41.1553 23.5601 47.5718 31.1744 48.3409C37.3699 48.9671 43.3768 45.8157 46.1252 40.4903C48.7678 35.3753 47.2094 28.8958 42.5704 25.747C41.2893 24.8748 39.876 24.3768 38.2283 24.245C38.426 24.6588 38.6208 25.0652 38.8132 25.4666Z" fill="#70DCE3"/>
<path d="M78.576 43.288C77.8293 43.288 77.2533 43.0853 76.848 42.68C76.464 42.2533 76.272 41.656 76.272 40.888V22.648C76.272 21.8373 76.464 21.2187 76.848 20.792C77.2533 20.3653 77.7867 20.152 78.448 20.152C79.024 20.152 79.4613 20.2693 79.76 20.504C80.08 20.7173 80.4427 21.08 80.848 21.592L92.08 35.896H91.216V22.52C91.216 21.7733 91.408 21.1973 91.792 20.792C92.1973 20.3653 92.7733 20.152 93.52 20.152C94.2667 20.152 94.832 20.3653 95.216 20.792C95.6213 21.1973 95.824 21.7733 95.824 22.52V40.984C95.824 41.688 95.6427 42.2533 95.28 42.68C94.9173 43.0853 94.4267 43.288 93.808 43.288C93.2107 43.288 92.7307 43.1707 92.368 42.936C92.0267 42.7013 91.6533 42.328 91.248 41.816L80.048 27.512H80.88V40.888C80.88 41.656 80.688 42.2533 80.304 42.68C79.92 43.0853 79.344 43.288 78.576 43.288ZM108.11 43.352C106.254 43.352 104.654 43.0213 103.31 42.36C101.987 41.6773 100.963 40.728 100.238 39.512C99.5338 38.2747 99.1818 36.824 99.1818 35.16C99.1818 33.5387 99.5231 32.12 100.206 30.904C100.888 29.6667 101.838 28.7067 103.054 28.024C104.291 27.32 105.688 26.968 107.246 26.968C108.376 26.968 109.4 27.16 110.318 27.544C111.235 27.9067 112.024 28.44 112.686 29.144C113.347 29.8267 113.848 30.6693 114.19 31.672C114.531 32.6533 114.702 33.752 114.702 34.968C114.702 35.3733 114.574 35.6827 114.318 35.896C114.062 36.088 113.688 36.184 113.198 36.184H103.15V33.688H111.214L110.702 34.136C110.702 33.2613 110.574 32.536 110.318 31.96C110.062 31.3627 109.688 30.9147 109.198 30.616C108.728 30.3173 108.142 30.168 107.438 30.168C106.648 30.168 105.976 30.3493 105.422 30.712C104.867 31.0747 104.44 31.5973 104.142 32.28C103.843 32.9627 103.694 33.784 103.694 34.744V35C103.694 36.6213 104.067 37.816 104.814 38.584C105.582 39.352 106.712 39.736 108.206 39.736C108.718 39.736 109.304 39.672 109.966 39.544C110.627 39.416 111.246 39.2133 111.822 38.936C112.312 38.7013 112.75 38.6267 113.134 38.712C113.518 38.776 113.816 38.9467 114.03 39.224C114.243 39.5013 114.36 39.8213 114.382 40.184C114.424 40.5467 114.35 40.9093 114.158 41.272C113.966 41.6133 113.646 41.9013 113.198 42.136C112.472 42.5413 111.651 42.84 110.734 43.032C109.838 43.2453 108.963 43.352 108.11 43.352ZM119.114 43.224C118.516 43.224 118.036 43.064 117.674 42.744C117.311 42.4027 117.119 41.976 117.098 41.464C117.098 40.952 117.311 40.4293 117.738 39.896L122.698 33.816V35.992L118.09 30.36C117.642 29.8053 117.428 29.272 117.45 28.76C117.471 28.248 117.663 27.832 118.026 27.512C118.388 27.192 118.868 27.032 119.466 27.032C120.042 27.032 120.522 27.128 120.906 27.32C121.29 27.512 121.652 27.832 121.994 28.28L125.418 32.664H123.722L127.146 28.28C127.508 27.832 127.882 27.512 128.266 27.32C128.65 27.128 129.119 27.032 129.674 27.032C130.271 27.032 130.751 27.2027 131.114 27.544C131.476 27.864 131.658 28.28 131.658 28.792C131.679 29.304 131.466 29.8267 131.018 30.36L126.41 35.992V33.816L131.402 39.896C131.85 40.408 132.063 40.92 132.042 41.432C132.02 41.944 131.818 42.3707 131.434 42.712C131.071 43.0533 130.591 43.224 129.994 43.224C129.418 43.224 128.938 43.128 128.554 42.936C128.191 42.7227 127.828 42.4027 127.466 41.976L123.722 37.208H125.354L121.61 41.976C121.268 42.3813 120.906 42.6907 120.522 42.904C120.159 43.1173 119.69 43.224 119.114 43.224ZM137.757 43.256C136.967 43.256 136.359 43.032 135.933 42.584C135.527 42.1147 135.325 41.464 135.325 40.632V29.688C135.325 28.8347 135.527 28.184 135.933 27.736C136.359 27.2667 136.967 27.032 137.757 27.032C138.525 27.032 139.111 27.2667 139.517 27.736C139.943 28.184 140.157 28.8347 140.157 29.688V40.632C140.157 41.464 139.954 42.1147 139.549 42.584C139.143 43.032 138.546 43.256 137.757 43.256ZM137.757 24.408C136.861 24.408 136.167 24.2053 135.677 23.8C135.207 23.3733 134.973 22.776 134.973 22.008C134.973 21.2187 135.207 20.6213 135.677 20.216C136.167 19.7893 136.861 19.576 137.757 19.576C138.653 19.576 139.335 19.7893 139.805 20.216C140.274 20.6213 140.509 21.2187 140.509 22.008C140.509 22.776 140.274 23.3733 139.805 23.8C139.335 24.2053 138.653 24.408 137.757 24.408ZM149.199 43.352C148.047 43.352 147.013 43.128 146.095 42.68C145.178 42.232 144.463 41.624 143.951 40.856C143.439 40.088 143.183 39.224 143.183 38.264C143.183 37.112 143.482 36.2053 144.079 35.544C144.677 34.8613 145.647 34.3813 146.991 34.104C148.335 33.8053 150.117 33.656 152.335 33.656H154.031V36.152H152.367C151.279 36.152 150.394 36.216 149.711 36.344C149.05 36.4507 148.57 36.6427 148.271 36.92C147.994 37.1973 147.855 37.5813 147.855 38.072C147.855 38.6693 148.058 39.16 148.463 39.544C148.89 39.928 149.498 40.12 150.287 40.12C150.906 40.12 151.45 39.9813 151.919 39.704C152.41 39.4053 152.794 39.0107 153.071 38.52C153.349 38.008 153.487 37.432 153.487 36.792V33.112C153.487 32.1733 153.274 31.512 152.847 31.128C152.421 30.7227 151.695 30.52 150.671 30.52C150.095 30.52 149.466 30.5947 148.783 30.744C148.122 30.872 147.386 31.096 146.575 31.416C146.106 31.6293 145.69 31.6827 145.327 31.576C144.965 31.448 144.687 31.2347 144.495 30.936C144.303 30.616 144.207 30.2747 144.207 29.912C144.207 29.528 144.314 29.1653 144.527 28.824C144.741 28.4613 145.093 28.1947 145.583 28.024C146.586 27.6187 147.525 27.3413 148.399 27.192C149.295 27.0427 150.117 26.968 150.863 26.968C152.506 26.968 153.85 27.2133 154.895 27.704C155.962 28.1733 156.762 28.9093 157.295 29.912C157.829 30.8933 158.095 32.1627 158.095 33.72V40.824C158.095 41.6133 157.903 42.2213 157.519 42.648C157.135 43.0747 156.581 43.288 155.855 43.288C155.13 43.288 154.565 43.0747 154.159 42.648C153.775 42.2213 153.583 41.6133 153.583 40.824V39.64L153.807 39.832C153.679 40.5573 153.402 41.1867 152.975 41.72C152.57 42.232 152.047 42.6373 151.407 42.936C150.767 43.2133 150.031 43.352 149.199 43.352Z" fill="#70DCE3"/>
</svg>
