<svg width="49" height="48" viewBox="0 0 49 48" fill="none" xmlns="http://www.w3.org/2000/svg">
<path fill-rule="evenodd" clip-rule="evenodd" d="M48.5 24C48.5 37.2548 37.7548 48 24.5 48C11.2452 48 0.5 37.2548 0.5 24C0.5 10.7452 11.2452 0 24.5 0C37.7548 0 48.5 10.7452 48.5 24ZM25.7624 30.7395C25.7624 33.6405 28.1203 36 31.0194 36C33.9185 36 36.2764 33.6405 36.2764 30.7395C36.2764 30.4831 36.2387 30.2366 36.201 29.9903L36.197 29.964H36.2555V15H38.2535C38.8058 15 39.2535 14.5523 39.2535 14V13C39.2535 12.4477 38.8058 12 38.2535 12H34.7564C34.3589 12 33.9776 12.158 33.6965 12.4393C33.4154 12.7206 33.2574 13.1022 33.2574 13.5V25.9995C32.5595 25.6615 31.7948 25.4842 31.0194 25.4805C29.6258 25.4817 28.2896 26.0361 27.304 27.022C26.3184 28.008 25.764 29.345 25.7624 30.7395ZM9.2733 14.5C9.2733 13.9477 9.72101 13.5 10.2733 13.5H29.2594C29.8117 13.5 30.2594 13.9477 30.2594 14.5V15.5C30.2594 16.0523 29.8117 16.5 29.2594 16.5H10.2733C9.72101 16.5 9.2733 16.0523 9.2733 15.5V14.5ZM10.2733 19.5C9.72101 19.5 9.2733 19.9477 9.2733 20.5V21.5C9.2733 22.0523 9.72101 22.5 10.2733 22.5H29.2594C29.8117 22.5 30.2594 22.0523 30.2594 21.5V20.5C30.2594 19.9477 29.8117 19.5 29.2594 19.5H10.2733ZM10.2733 25.5C9.72101 25.5 9.2733 25.9477 9.2733 26.5V27.5C9.2733 28.0523 9.72101 28.5 10.2733 28.5H21.7644C22.3167 28.5 22.7644 28.0523 22.7644 27.5V26.5C22.7644 25.9477 22.3167 25.5 21.7644 25.5H10.2733ZM10.2733 31.5C9.72101 31.5 9.2733 31.9477 9.2733 32.5V33.5C9.2733 34.0523 9.72101 34.5 10.2733 34.5H21.7644C22.3167 34.5 22.7644 34.0523 22.7644 33.5V32.5C22.7644 31.9477 22.3167 31.5 21.7644 31.5H10.2733Z" fill="#12171A"/>
</svg>
