<svg width="49" height="48" viewBox="0 0 49 48" fill="none" xmlns="http://www.w3.org/2000/svg">
<path fill-rule="evenodd" clip-rule="evenodd" d="M24.5 48C37.7548 48 48.5 37.2548 48.5 24C48.5 10.7452 37.7548 0 24.5 0C11.2452 0 0.5 10.7452 0.5 24C0.5 37.2548 11.2452 48 24.5 48ZM28.3096 30.0815C26.4989 31.4124 24.3097 32.1285 22.0625 32.125C19.2612 32.125 16.5745 31.0122 14.5937 29.0313C12.6128 27.0505 11.5 24.3638 11.5 21.5625C11.5 18.7612 12.6128 16.0745 14.5937 14.0937C16.5745 12.1128 19.2612 11 22.0625 11C24.8636 11.0009 27.5497 12.114 29.5304 14.0946C31.511 16.0753 32.6241 18.7614 32.625 21.5625C32.6282 23.8091 31.9118 25.9976 30.5807 27.8074C30.6471 27.8567 30.7095 27.9111 30.7676 27.9699L37.0239 34.2261C37.3286 34.531 37.4997 34.9445 37.4995 35.3756C37.4994 35.8066 37.328 36.22 37.0231 36.5247C36.7181 36.8294 36.3047 37.0005 35.8736 37.0003C35.4425 37.0002 35.0292 36.8288 34.7245 36.5239L28.4683 30.2676C28.41 30.2077 28.3582 30.1462 28.3096 30.0815ZM22.0625 18.2832C24.7665 15.5646 31.5281 20.321 22.0625 26.4375C12.5969 20.321 19.3585 15.5662 22.0625 18.2832Z" fill="#12171A"/>
</svg>
