<svg width="25" height="25" viewBox="0 0 25 25" xmlns="http://www.w3.org/2000/svg">
<g clip-path="url(#clip0_425_3)">
<path d="M12.5 0.5C5.87262 0.5 0.5 5.87272 0.5 12.5C0.5 19.1278 5.87272 24.5 12.5 24.5C19.1278 24.5 24.5 19.1278 24.5 12.5C24.5 5.87319 19.1278 0.500656 12.4998 0.500656L12.4999 0.500094L12.5 0.5ZM18.003 17.8076C17.7881 18.1601 17.3266 18.2718 16.9741 18.0554C14.1567 16.3345 10.6099 15.9447 6.43288 16.899C6.23945 16.943 6.03646 16.9085 5.86854 16.8028C5.70061 16.6972 5.58149 16.5293 5.53737 16.3359C5.51539 16.2401 5.51251 16.141 5.52889 16.0441C5.54527 15.9473 5.5806 15.8546 5.63285 15.7714C5.6851 15.6882 5.75324 15.6161 5.83338 15.5593C5.91352 15.5025 6.00408 15.4621 6.09987 15.4403C10.6711 14.3959 14.592 14.8455 17.7552 16.7787C18.1077 16.995 18.2194 17.4551 18.003 17.8076ZM19.4718 14.5401C19.2009 14.9803 18.6249 15.1193 18.185 14.8484C14.9594 12.8658 10.0425 12.2916 6.22738 13.4497C5.73256 13.5991 5.21 13.3203 5.05981 12.8263C4.91075 12.3315 5.18975 11.8099 5.68372 11.6595C10.0417 10.3371 15.4595 10.9777 19.1637 13.2539C19.6036 13.5249 19.7427 14.1009 19.4718 14.5402V14.5401ZM19.5979 11.1376C15.7303 8.84037 9.34944 8.62906 5.65691 9.74994C5.06394 9.92975 4.43684 9.59497 4.25722 9.002C4.0775 8.40875 4.41191 7.78212 5.00534 7.60184C9.24406 6.31503 16.2907 6.56375 20.7433 9.20712C21.2779 9.52363 21.4527 10.2125 21.136 10.7451C20.8208 11.2785 20.13 11.4543 19.5985 11.1376H19.5979Z" />
</g>
<defs>
<clipPath id="clip0_425_3">
<rect width="24" height="24" transform="translate(0.5 0.5)"/>
</clipPath>
</defs>
</svg>
