<svg width="49" height="48" viewBox="0 0 49 48" fill="none" xmlns="http://www.w3.org/2000/svg">
<g clip-path="url(#clip0_342_150)">
<rect x="0.5" width="48" height="48" rx="24" fill="#F6F6F6"/>
<path d="M24.5 0C11.2452 0 0.5 10.7452 0.5 24C0.5 37.2548 11.2452 48 24.5 48C37.7548 48 48.5 37.2548 48.5 24C48.5 10.7452 37.7548 0 24.5 0ZM24.4514 13.345C26.6651 13.3741 28.4987 15.1762 29.1079 17.4726C29.3402 18.4096 29.3664 19.3602 29.1322 20.3526C28.7791 21.7497 28.0723 23.1145 26.7553 23.9529L28.6747 24.8647L33.2356 27.0729C33.6835 27.2649 33.9073 27.6489 33.9073 28.2249V32.6398C33.9073 33.5503 33.9796 34.3355 32.851 34.6565H16.0517C14.9663 34.6409 14.9214 33.5416 14.9468 32.6398V28.2249C14.9468 27.6489 15.1872 27.2483 15.6672 27.0243L20.3708 24.8647L22.196 24C21.364 23.456 20.708 22.7047 20.228 21.7447C19.6516 20.4773 19.423 18.8321 19.8435 17.3282C20.375 15.2898 22.0396 13.4583 24.4514 13.345V13.345ZM16.6276 15.3602C17.3317 15.3602 17.9711 15.5688 18.5471 15.9848C18.3874 16.4327 18.2521 16.9052 18.1398 17.4012C18.0278 17.8971 17.9711 18.4164 17.9711 18.9604C17.9711 19.7605 18.0829 20.5284 18.3069 21.2644C18.5309 22.0004 18.8513 22.6731 19.2674 23.2812C19.0754 23.5371 18.82 23.7609 18.4999 23.9529L14.9467 25.5851C14.4667 25.8411 14.0828 26.2001 13.7948 26.6642C13.5068 27.1282 13.3632 27.6489 13.3632 28.225V32.6398H9.86012C9.35192 32.6319 9.00868 32.1198 8.99536 31.5851V27.4088C8.99536 26.9288 9.17072 26.6083 9.52272 26.4483L14.8511 24C13.4744 23.1538 12.8102 21.6242 12.7402 19.921C12.7644 17.8225 14.1398 15.5345 16.6276 15.3602V15.3602ZM32.3708 15.3602C34.5825 15.3952 36.18 17.5878 36.2599 19.921C36.2478 21.4648 35.6452 22.9555 34.2432 23.9529L39.4757 26.4484C39.8277 26.6404 40.0031 26.9608 40.0031 27.4089V31.5852C39.9978 32.0808 39.7303 32.5893 39.1399 32.6398H35.5396V28.2249C35.5396 27.6489 35.396 27.1282 35.108 26.6641C34.82 26.2001 34.436 25.8411 33.956 25.5851C32.4638 24.8915 30.7501 24.3937 29.6353 23.2325C30.4673 21.9525 30.883 20.5285 30.883 18.9604C30.883 17.9684 30.7076 16.9919 30.3556 16.0319C30.9337 15.6502 31.618 15.3709 32.3708 15.3602V15.3602Z" fill="#12171A"/>
</g>
<defs>
<clipPath id="clip0_342_150">
<rect x="0.5" width="48" height="48" rx="24" fill="white"/>
</clipPath>
</defs>
</svg>
